<svg width="1920" height="282" viewBox="0 0 1920 282" fill="none" xmlns="http://www.w3.org/2000/svg">
<g clip-path="url(#clip0_369_2)">
<path d="M1995.66 637.252L223.465 654.345C100.399 655.532 0 556.097 0 433.025C0 230.528 319.714 67.3815 518.966 103.494C521.116 103.884 520.07 103.725 522.208 104.175L626.385 126.107C715.058 144.775 807.466 124.025 879.644 69.2373C955.953 11.3138 1054.62 -8.39651 1147.33 15.7629L1403.11 82.42C1456.46 96.3232 1512.11 99.0474 1566.56 90.4216L1956.35 28.6771C1982.13 24.5939 2003.3 6.13 2010.85 -18.8519C2033.84 -94.934 2146.35 -76.6173 2144.03 2.83026L2129.3 506.213C2127.18 578.694 2068.17 636.553 1995.66 637.252Z" fill="url(#paint0_linear_369_2)"/>
</g>
<defs>
<linearGradient id="paint0_linear_369_2" x1="896" y1="144.5" x2="2147.5" y2="19.5" gradientUnits="userSpaceOnUse">
<stop offset="0.34" stop-color="#171717"/>
</linearGradient>
<clipPath id="clip0_369_2">
<rect width="1920" height="282" fill="white" transform="matrix(1 0 0 -1 0 282)"/>
</clipPath>
</defs>
</svg>
