<svg width="606" height="209" viewBox="0 0 606 209" fill="none" xmlns="http://www.w3.org/2000/svg">
<path fill-rule="evenodd" clip-rule="evenodd" d="M1.68387 73.4975C-1.24407 70.5696 -0.20519 65.5994 3.65038 64.0893L67.1812 39.2075C69.3066 38.3751 69.8793 35.6353 68.2653 34.0213C67.029 32.785 67.029 30.7805 68.2653 29.5442L93.6728 4.13672C95.9155 1.89399 99.5517 1.89399 101.794 4.13672L114.597 16.9397C116.211 18.5535 118.627 19.0586 120.753 18.2263L166.279 0.395657C168.405 -0.436631 170.821 0.0684178 172.435 1.68221L207.318 36.5655C208.932 38.1793 209.437 40.5955 208.604 42.7206L190.774 88.2475C189.941 90.3726 190.446 92.7888 192.06 94.4026L205.6 107.942C207.842 110.185 207.842 113.821 205.6 116.064L180.483 141.18C179.086 142.577 176.821 142.577 175.424 141.18C173.6 139.356 170.504 140.003 169.563 142.405L144.911 205.35C143.401 209.205 138.43 210.244 135.502 207.316L102.223 174.037C100.543 172.356 100.071 169.814 101.037 167.643L112.002 142.986C112.27 142.383 112.139 141.677 111.672 141.21C111.049 140.587 110.039 140.587 109.416 141.21L56.9197 193.706C54.677 195.949 51.0408 195.949 48.7981 193.706L16.03 160.938C13.7873 158.696 13.7873 155.059 16.03 152.817L67.679 101.168C68.77 100.077 68.77 98.3078 67.679 97.2169C66.8614 96.3993 65.6248 96.1698 64.5683 96.6396L40.6644 107.27C38.4927 108.236 35.9505 107.764 34.27 106.084L1.68387 73.4975ZM109.56 114.37C112.078 116.889 116.258 116.531 118.312 113.622L151.458 66.6714C155.179 61.4019 148.724 54.9476 143.455 58.6678L96.5047 91.8139C93.5951 93.868 93.2376 98.0478 95.756 100.566L109.56 114.37Z" fill="white"/>
<path d="M229.584 91.276C227.927 91.276 226.584 89.9329 226.584 88.276V4.67602C226.584 3.01917 227.927 1.67603 229.584 1.67603H250.013C250.902 1.67603 251.745 2.07021 252.315 2.75228L292.869 51.2803C294.502 53.2335 293.113 56.204 290.567 56.204H288.464C286.807 56.204 285.464 54.8609 285.464 53.204V4.67603C285.464 3.01917 286.807 1.67603 288.464 1.67603H311.904C313.561 1.67603 314.904 3.01917 314.904 4.67603V88.276C314.904 89.9329 313.561 91.276 311.904 91.276H291.475C290.586 91.276 289.743 90.8818 289.173 90.1998L248.619 41.6718C246.986 39.7186 248.375 36.748 250.921 36.748H253.024C254.681 36.748 256.024 38.0912 256.024 39.748V88.276C256.024 89.9329 254.681 91.276 253.024 91.276H229.584Z" fill="white"/>
<path d="M332.459 91.276C330.802 91.276 329.459 89.9329 329.459 88.276V4.67602C329.459 3.01917 330.802 1.67603 332.459 1.67603H373.619C383.603 1.67603 392.392 3.51069 399.987 7.18003C407.582 10.764 413.512 15.884 417.779 22.54C422.046 29.196 424.179 37.132 424.179 46.348C424.179 55.6494 422.046 63.6707 417.779 70.412C413.512 77.068 407.582 82.2307 399.987 85.9C392.392 89.484 383.603 91.276 373.619 91.276H332.459ZM359.667 64.724C359.667 66.3809 361.01 67.724 362.667 67.724H372.339C376.606 67.724 380.318 66.9134 383.475 65.292C386.718 63.6707 389.235 61.2814 391.027 58.124C392.819 54.8814 393.715 50.956 393.715 46.348C393.715 41.8254 392.819 37.9854 391.027 34.828C389.235 31.6707 386.718 29.2814 383.475 27.66C380.318 26.0387 376.606 25.228 372.339 25.228H362.667C361.01 25.228 359.667 26.5712 359.667 28.228V64.724Z" fill="white"/>
<path d="M438.209 91.276C436.552 91.276 435.209 89.9329 435.209 88.276V4.67602C435.209 3.01917 436.552 1.67603 438.209 1.67603H478.345C486.708 1.67603 493.918 3.04136 499.977 5.77203C506.121 8.50269 510.857 12.428 514.185 17.548C517.513 22.5827 519.177 28.556 519.177 35.468C519.177 42.38 517.513 48.3534 514.185 53.388C510.857 58.3374 506.121 62.1347 499.977 64.78C493.918 67.4254 486.708 68.748 478.345 68.748H459.645C456.915 68.748 455.604 65.3972 457.61 63.5444L460.381 60.9841C462.303 59.209 465.417 60.5718 465.417 63.1877V88.276C465.417 89.9329 464.074 91.276 462.417 91.276H438.209ZM490.436 91.276C489.439 91.276 488.507 90.7804 487.949 89.9536L469.98 63.3136C468.636 61.3211 470.064 58.636 472.467 58.636H497.24C498.232 58.636 499.159 59.126 499.718 59.9451L517.896 86.5851C519.255 88.5765 517.829 91.276 515.418 91.276H490.436ZM465.417 52.3197C465.417 55.006 462.157 56.3383 460.276 54.4209L456.983 51.0652C455.12 49.1673 456.465 45.964 459.124 45.964H476.425C480.606 45.964 483.678 45.0254 485.641 43.148C487.689 41.2707 488.713 38.7107 488.713 35.468C488.713 32.2254 487.689 29.6654 485.641 27.788C483.678 25.9107 480.606 24.972 476.425 24.972H459.124C456.465 24.972 455.12 21.7687 456.983 19.8708L460.276 16.5152C462.157 14.5978 465.417 15.93 465.417 18.6164V52.3197Z" fill="white"/>
<path d="M533.584 91.276C531.927 91.276 530.584 89.9329 530.584 88.276V4.67602C530.584 3.01917 531.927 1.67603 533.584 1.67603H557.792C559.449 1.67603 560.792 3.01917 560.792 4.67603V88.276C560.792 89.9329 559.449 91.276 557.792 91.276H533.584Z" fill="white"/>
<path d="M578.334 91.276C576.677 91.276 575.334 89.9329 575.334 88.276V4.67602C575.334 3.01917 576.677 1.67603 578.334 1.67603H602.542C604.199 1.67603 605.542 3.01917 605.542 4.67603V88.276C605.542 89.9329 604.199 91.276 602.542 91.276H578.334Z" fill="white"/>
<path d="M273.56 207.324C266.307 207.324 259.565 206.172 253.336 203.868C247.192 201.564 241.859 198.321 237.336 194.14C232.813 189.873 229.272 184.881 226.712 179.164C224.237 173.447 223 167.217 223 160.476C223 153.649 224.237 147.42 226.712 141.788C229.272 136.071 232.813 131.121 237.336 126.94C241.859 122.673 247.192 119.388 253.336 117.084C259.565 114.78 266.307 113.628 273.56 113.628C280.899 113.628 287.64 114.78 293.784 117.084C299.928 119.388 305.261 122.673 309.784 126.94C314.307 131.121 317.805 136.071 320.28 141.788C322.84 147.42 324.12 153.649 324.12 160.476C324.12 167.217 322.84 173.447 320.28 179.164C317.805 184.881 314.307 189.873 309.784 194.14C305.261 198.321 299.928 201.564 293.784 203.868C287.64 206.172 280.899 207.324 273.56 207.324ZM273.56 182.876C276.376 182.876 278.979 182.364 281.368 181.34C283.843 180.316 285.976 178.865 287.768 176.988C289.645 175.025 291.096 172.679 292.12 169.948C293.144 167.132 293.656 163.975 293.656 160.476C293.656 156.977 293.144 153.863 292.12 151.132C291.096 148.316 289.645 145.969 287.768 144.092C285.976 142.129 283.843 140.636 281.368 139.612C278.979 138.588 276.376 138.076 273.56 138.076C270.744 138.076 268.099 138.588 265.624 139.612C263.235 140.636 261.101 142.129 259.224 144.092C257.432 145.969 256.024 148.316 255 151.132C253.976 153.863 253.464 156.977 253.464 160.476C253.464 163.975 253.976 167.132 255 169.948C256.024 172.679 257.432 175.025 259.224 176.988C261.101 178.865 263.235 180.316 265.624 181.34C268.099 182.364 270.744 182.876 273.56 182.876Z" fill="white"/>
<path d="M338.084 205.276C336.427 205.276 335.084 203.933 335.084 202.276V118.676C335.084 117.019 336.427 115.676 338.084 115.676H378.22C386.583 115.676 393.793 117.041 399.852 119.772C405.996 122.503 410.732 126.428 414.06 131.548C417.388 136.583 419.052 142.556 419.052 149.468C419.052 156.38 417.388 162.353 414.06 167.388C410.732 172.423 405.996 176.348 399.852 179.164C393.793 181.895 386.583 183.26 378.22 183.26H359.298C356.597 183.26 355.272 179.97 357.219 178.098L360.212 175.218C362.118 173.385 365.292 174.736 365.292 177.38V202.276C365.292 203.933 363.949 205.276 362.292 205.276H338.084ZM365.292 166.32C365.292 169.006 362.032 170.338 360.151 168.421L356.858 165.065C354.995 163.167 356.34 159.964 358.999 159.964H376.3C380.481 159.964 383.553 159.025 385.516 157.148C387.564 155.271 388.588 152.711 388.588 149.468C388.588 146.225 387.564 143.665 385.516 141.788C383.553 139.911 380.481 138.972 376.3 138.972H358.999C356.34 138.972 354.995 135.769 356.858 133.871L360.151 130.515C362.032 128.598 365.292 129.93 365.292 132.616V166.32Z" fill="white"/>
<path d="M431.959 205.276C430.302 205.276 428.959 203.933 428.959 202.276V118.676C428.959 117.019 430.302 115.676 431.959 115.676H456.167C457.824 115.676 459.167 117.019 459.167 118.676V202.276C459.167 203.933 457.824 205.276 456.167 205.276H431.959Z" fill="white"/>
<path d="M476.709 205.276C475.052 205.276 473.709 203.933 473.709 202.276V118.676C473.709 117.019 475.052 115.676 476.709 115.676H500.917C502.574 115.676 503.917 117.019 503.917 118.676V202.276C503.917 203.933 502.574 205.276 500.917 205.276H476.709Z" fill="white"/>
</svg>
