<svg width="48" height="48" viewBox="0 0 48 48" fill="none" xmlns="http://www.w3.org/2000/svg">
<rect width="48" height="48" rx="12" fill="#EFF7FA"/>
<path fill-rule="evenodd" clip-rule="evenodd" d="M11.5451 21.2029C11.2114 20.8692 11.3298 20.3027 11.7692 20.1306L19.0102 17.2946C19.2524 17.1998 19.3177 16.8875 19.1337 16.7035V16.7035C18.9928 16.5626 18.9928 16.3342 19.1337 16.1933L22.0296 13.2974C22.2852 13.0418 22.6996 13.0418 22.9552 13.2974L24.4145 14.7567C24.5984 14.9406 24.8738 14.9982 25.116 14.9033L30.3049 12.871C30.5472 12.7762 30.8225 12.8337 31.0065 13.0177L34.9823 16.9935C35.1662 17.1774 35.2238 17.4528 35.129 17.695L33.0967 22.884C33.0018 23.1262 33.0594 23.4016 33.2433 23.5855L34.7865 25.1287C35.0421 25.3843 35.0421 25.7987 34.7865 26.0544L31.9238 28.917C31.7646 29.0762 31.5064 29.0762 31.3472 28.917V28.917C31.1393 28.7091 30.7864 28.7829 30.6792 29.0566L27.8694 36.2308C27.6973 36.6702 27.1308 36.7886 26.7971 36.4549L23.0041 32.6619C22.8126 32.4704 22.7588 32.1806 22.8689 31.9331L24.1186 29.1229C24.1492 29.0541 24.1343 28.9737 24.0811 28.9204V28.9204C24.01 28.8494 23.8949 28.8494 23.8239 28.9204L17.8406 34.9037C17.585 35.1594 17.1706 35.1594 16.9149 34.9037L13.1802 31.169C12.9246 30.9134 12.9246 30.4989 13.1802 30.2433L19.0669 24.3566C19.1913 24.2322 19.1913 24.0306 19.0669 23.9063V23.9063C18.9737 23.8131 18.8328 23.787 18.7124 23.8405L15.9879 25.0521C15.7404 25.1622 15.4506 25.1084 15.2591 24.9169L11.5451 21.2029ZM23.8018 25.8999C24.0888 26.187 24.5652 26.1462 24.7993 25.8146L28.5771 20.4634C29.0012 19.8628 28.2655 19.1272 27.6649 19.5512L22.3138 23.3291C21.9821 23.5632 21.9414 24.0396 22.2284 24.3266L23.8018 25.8999Z" fill="#01565B"/>
</svg>
